<svg xmlns="http://www.w3.org/2000/svg" width="256" height="256" viewBox="0 0 100 100"><rect width="100" height="100" rx="20" fill="#00a496"></rect><path fill="#fff" d="M42.76 28.90L27.91 28.90L27.91 77.22Q27.46 77.41 26.51 77.63Q25.57 77.86 24.57 77.86L24.57 77.86Q20.62 77.86 20.62 74.53L20.62 74.53L20.62 28.90L3.79 28.90Q3.52 28.45 3.25 27.68Q2.98 26.92 2.98 25.93L2.98 25.93Q2.98 24.40 3.70 23.54Q4.42 22.69 5.77 22.69L5.77 22.69L44.73 22.69Q45.01 23.14 45.27 23.90Q45.55 24.67 45.55 25.57L45.55 25.57Q45.55 27.10 44.83 28.00Q44.10 28.90 42.76 28.90L42.76 28.90ZM79.03 76.69L79.03 76.69Q78.58 77.14 77.31 77.50Q76.06 77.86 74.53 77.86L74.53 77.86Q72.81 77.86 71.47 77.36Q70.12 76.86 69.66 75.88L69.66 75.88Q68.50 73.53 66.92 69.84Q65.34 66.16 63.59 61.61Q61.84 57.06 59.99 52.03Q58.15 46.98 56.44 42.04Q54.73 37.09 53.20 32.45Q51.66 27.82 50.59 24.13L50.59 24.13Q51.13 23.41 52.20 22.78Q53.29 22.15 54.64 22.15L54.64 22.15Q56.34 22.15 57.16 22.96Q57.97 23.77 58.51 25.39L58.51 25.39Q62.55 37.18 66.25 48.16Q69.94 59.14 74.34 70.47L74.34 70.47L74.70 70.47Q76.69 65.34 78.80 59.54Q80.91 53.73 82.94 47.57Q84.97 41.41 86.90 35.11Q88.84 28.80 90.37 22.78L90.37 22.78Q91.53 22.15 93.42 22.15L93.42 22.15Q95.05 22.15 96.03 22.96Q97.03 23.77 97.03 25.39L97.03 25.39Q97.03 26.74 95.99 30.47Q94.95 34.21 93.34 39.16Q91.72 44.11 89.69 49.78Q87.66 55.45 85.69 60.67Q83.70 65.89 81.91 70.20Q80.11 74.53 79.03 76.69Z"></path></svg>